<?xml version="1.0" encoding="UTF-8"?>
<svg id="Layer_2" data-name="Layer 2" xmlns="http://www.w3.org/2000/svg" viewBox="0 0 91.52 85.93">
  <defs>
    <style>
      .cls-1 {
        fill: #d3d3d3;
      }
    </style>
  </defs>
  <g id="Layer_1-2" data-name="Layer 1">
    <g>
      <path class="cls-1" d="m28.84,38.98s0,0,0,0l36.35-7.98c1.09-.24,1.77-1.31,1.53-2.4-.24-1.09-1.31-1.77-2.4-1.53l-36.35,7.98s0,0,0,0c-3.79.83-6.2,4.59-5.37,8.38.4,1.84,1.5,3.41,3.08,4.42,1.15.73,2.45,1.11,3.78,1.11.23,0,.47-.01.7-.04,0,0,0,0,0,0,.14,0,.29-.02.43-.05l36.73-8.06c1.62-.36,3.23.67,3.59,2.3.36,1.62-.67,3.23-2.3,3.59,0,0,0,0,0,0l-42.37,9.3c-1.03.23-1.71,1.21-1.56,2.24,0,0,0,0,0,0,.02.05.03.11.03.17,0,0,0,.01,0,.02,0,.02.01.03.02.05,0,.03.01.05.02.08.26.85,1.05,1.42,1.92,1.42.14,0,.29-.02.43-.05l42.37-9.3s0,0,0,0c3.79-.83,6.2-4.59,5.37-8.38-.4-1.84-1.5-3.41-3.08-4.42-1.58-1.01-3.47-1.35-5.3-.95l-36.35,7.98s0,0,0,0c-.79.17-1.59.03-2.27-.41-.68-.43-1.15-1.11-1.32-1.89-.36-1.62.67-3.23,2.3-3.59Z"/>
      <path class="cls-1" d="m88.14,26.24c-2.16-5.12-5.26-9.71-9.21-13.66-3.95-3.95-8.54-7.04-13.66-9.21-5.3-2.24-10.92-3.38-16.72-3.38s-11.43,1.14-16.72,3.38c-5.12,2.16-9.71,5.26-13.66,9.21-3.95,3.95-7.04,8.54-9.21,13.66-2.24,5.3-3.38,10.92-3.38,16.72,0,1.11.9,2.01,2.01,2.01.14,0,.28-.02.42-.04.04,0,.08-.01.12-.02.02,0,.04-.02.06-.02.03-.01.06-.02.09-.03.02,0,.03-.02.05-.02,0,0,0,0,0,0,.75-.29,1.28-1.02,1.28-1.87C9.61,21.49,27.08,4.02,48.55,4.02s38.94,17.47,38.94,38.94-17.47,38.94-38.94,38.94c-8.51,0-16.59-2.69-23.37-7.79-.89-.67-2.15-.49-2.82.4-.67.89-.49,2.15.4,2.82,3.64,2.74,7.66,4.86,11.96,6.32,4.44,1.51,9.09,2.27,13.83,2.27,5.8,0,11.43-1.14,16.72-3.38,5.12-2.16,9.71-5.26,13.66-9.21,3.95-3.95,7.04-8.54,9.21-13.66,2.24-5.3,3.38-10.92,3.38-16.72s-1.14-11.43-3.38-16.72Z"/>
      <path class="cls-1" d="m22.13,59.14c-.24-1.11-1.34-1.81-2.45-1.57l-10.57,2.32c-1.11.24-1.81,1.34-1.57,2.45.21.96,1.06,1.62,2.01,1.62.15,0,.29-.02.44-.05l10.57-2.32c1.11-.24,1.81-1.34,1.57-2.45Z"/>
      <path class="cls-1" d="m2.89,61.16l-1.27.28c-1.11.24-1.81,1.34-1.57,2.45.21.96,1.06,1.62,2.01,1.62.15,0,.29-.02.44-.05l1.27-.28c1.11-.24,1.81-1.34,1.57-2.45-.24-1.11-1.34-1.81-2.45-1.57Z"/>
    </g>
  </g>
</svg>