<?xml version="1.0" encoding="UTF-8"?>
<svg id="Layer_2" data-name="Layer 2" xmlns="http://www.w3.org/2000/svg" viewBox="0 0 75.64 689.08">
  <defs>
    <style>
      .cls-1 {
        opacity: .35;
      }

      .cls-2 {
        fill: #d3d3d3;
      }
    </style>
  </defs>
  <g id="bg1">
    <g class="cls-1">
      <path class="cls-2" d="m1.05,689.08v-17.65c0-5.74,1.54-10.05,4.62-12.92,3.08-2.87,7.6-4.31,13.55-4.31h37.19c5.95,0,10.47,1.44,13.55,4.31,3.08,2.87,4.62,7.18,4.62,12.92v17.65H1.05Zm63.04-17.44c0-1.89-.56-3.34-1.68-4.36-1.12-1.02-2.94-1.52-5.46-1.52H18.7c-2.52,0-4.34.51-5.46,1.52-1.12,1.01-1.68,2.47-1.68,4.36v5.88h52.53v-5.88Z"/>
      <path class="cls-2" d="m1.05,646.43v-31.52h10.51v19.96h19.44v-15.86h10.5v15.86h22.59v-19.96h10.51v31.52H1.05Z"/>
      <path class="cls-2" d="m70.92,604.67c-3.15,2.91-7.6,4.36-13.34,4.36H18.07c-5.74,0-10.19-1.45-13.34-4.36-3.15-2.91-4.73-7.13-4.73-12.66s1.58-9.75,4.73-12.66c3.15-2.9,7.6-4.36,13.34-4.36h7.77v10.93h-8.51c-4.55,0-6.83,1.93-6.83,5.78s2.28,5.78,6.83,5.78h41.08c4.48,0,6.72-1.92,6.72-5.78s-2.24-5.78-6.72-5.78h-11.24v-10.93h10.4c5.74,0,10.19,1.46,13.34,4.36,3.15,2.91,4.73,7.13,4.73,12.66s-1.58,9.75-4.73,12.66Z"/>
      <path class="cls-2" d="m70.81,564.17c-3.22,3.01-7.78,4.52-13.66,4.52H18.49c-5.88,0-10.44-1.5-13.66-4.52-3.22-3.01-4.83-7.35-4.83-13.03s1.61-10.01,4.83-13.03c3.22-3.01,7.77-4.52,13.66-4.52h38.66c5.88,0,10.44,1.51,13.66,4.52,3.22,3.01,4.83,7.36,4.83,13.03s-1.61,10.02-4.83,13.03Zm-12.92-19.01H17.76c-4.83,0-7.25,2-7.25,5.99s2.42,5.99,7.25,5.99h40.13c4.83,0,7.25-2,7.25-5.99s-2.42-5.99-7.25-5.99Z"/>
      <path class="cls-2" d="m70.86,521.83c-3.19,2.94-7.76,4.41-13.71,4.41H1.05v-11.56h56.94c2.52,0,4.34-.51,5.46-1.52,1.12-1.01,1.68-2.47,1.68-4.36s-.56-3.34-1.68-4.36c-1.12-1.02-2.94-1.52-5.46-1.52H1.05v-11.14h56.1c5.95,0,10.52,1.47,13.71,4.41,3.19,2.94,4.78,7.22,4.78,12.82s-1.59,9.88-4.78,12.82Z"/>
      <path class="cls-2" d="m1.05,486.63v-11.66l57.05-7.57v-.21l-57.05-7.56v-10.61l73.54,11.14v15.34L1.05,486.63Z"/>
      <path class="cls-2" d="m1.05,443.46v-17.13c0-5.95,1.39-10.29,4.15-13.03,2.77-2.73,7.02-4.1,12.77-4.1h4.52c7.64,0,12.47,2.52,14.5,7.57h.21c.84-2.8,2.56-4.78,5.15-5.94,2.59-1.16,6.06-1.73,10.4-1.73h12.92c2.1,0,3.8-.07,5.1-.21,1.3-.14,2.57-.49,3.84-1.05v11.77c-1.19.42-2.31.7-3.36.84-1.05.14-2.94.21-5.67.21h-13.45c-3.36,0-5.71.54-7.04,1.63-1.33,1.08-2,2.96-2,5.62v3.99h31.52v11.56H1.05Zm31.52-15.76c0-2.31-.59-4.04-1.79-5.2-1.19-1.16-3.19-1.73-5.99-1.73h-5.67c-2.66,0-4.59.47-5.78,1.42-1.19.95-1.79,2.43-1.79,4.46v5.25h21.01v-4.2Z"/>
      <path class="cls-2" d="m1.05,401.12v-31.52h10.51v19.96h19.44v-15.86h10.5v15.86h22.59v-19.96h10.51v31.52H1.05Z"/>
      <path class="cls-2" d="m64.3,365.08l-52.74-21.43v20.38H1.05v-32.78h10.3l52.74,21.43v-21.43h10.51v33.83h-10.3Z"/>
      <path class="cls-2" d="m70.86,305.62c-3.19,2.87-7.76,4.31-13.71,4.31h-4.2v-10.93h5.04c4.76,0,7.14-2,7.14-5.99,0-1.96-.58-3.45-1.73-4.47s-3.03-1.52-5.62-1.52c-3.08,0-5.79.7-8.14,2.1-2.35,1.4-5.17,3.99-8.46,7.78-4.2,4.76-8,8.09-11.4,9.98-3.4,1.89-7.23,2.84-11.5,2.84-5.81,0-10.31-1.47-13.5-4.41-3.19-2.94-4.78-7.21-4.78-12.82s1.6-9.72,4.78-12.55c3.19-2.84,7.76-4.26,13.71-4.26h3.05v10.93h-3.78c-2.52,0-4.36.49-5.52,1.47-1.16.98-1.73,2.42-1.73,4.31,0,3.85,2.35,5.78,7.04,5.78,2.66,0,5.15-.72,7.46-2.15,2.31-1.43,5.12-4.05,8.41-7.83,4.2-4.83,8.02-8.16,11.45-9.98,3.43-1.82,7.46-2.73,12.08-2.73,6.02,0,10.65,1.49,13.87,4.47,3.22,2.98,4.83,7.3,4.83,12.98s-1.59,9.84-4.78,12.71Z"/>
      <path class="cls-2" d="m11.56,259.81v12.08H1.05v-35.72h10.51v12.08h63.04v11.56H11.56Z"/>
      <path class="cls-2" d="m1.05,230.61v-31.52h10.51v19.96h19.44v-15.86h10.5v15.86h22.59v-19.96h10.51v31.52H1.05Z"/>
      <path class="cls-2" d="m1.05,192.47v-31.52h10.51v19.96h19.44v-15.86h10.5v15.86h22.59v-19.96h10.51v31.52H1.05Z"/>
      <path class="cls-2" d="m1.05,154.33v-17.02c0-5.74,1.54-10.05,4.62-12.92,3.08-2.87,7.6-4.31,13.55-4.31h7.25c5.96,0,10.47,1.44,13.55,4.31,3.08,2.87,4.62,7.18,4.62,12.92v5.46h29.94v11.56H1.05Zm33.09-17.02c0-1.89-.53-3.31-1.58-4.25-1.05-.95-2.84-1.42-5.36-1.42h-8.72c-2.52,0-4.31.47-5.36,1.42-1.05.95-1.58,2.36-1.58,4.25v5.46h22.59v-5.46Z"/>
      <path class="cls-2" d="m70.81,110.1c-3.22,3.01-7.78,4.52-13.66,4.52H18.49c-5.88,0-10.44-1.5-13.66-4.52-3.22-3.01-4.83-7.35-4.83-13.03s1.61-10.01,4.83-13.03c3.22-3.01,7.77-4.52,13.66-4.52h38.66c5.88,0,10.44,1.51,13.66,4.52,3.22,3.01,4.83,7.36,4.83,13.03s-1.61,10.02-4.83,13.03Zm-12.92-19.01H17.76c-4.83,0-7.25,2-7.25,5.99s2.42,5.99,7.25,5.99h40.13c4.83,0,7.25-2,7.25-5.99s-2.42-5.99-7.25-5.99Z"/>
      <path class="cls-2" d="m70.86,69.44c-3.19,2.87-7.76,4.31-13.71,4.31h-4.2v-10.93h5.04c4.76,0,7.14-2,7.14-5.99,0-1.96-.58-3.45-1.73-4.47s-3.03-1.52-5.62-1.52c-3.08,0-5.79.7-8.14,2.1-2.35,1.4-5.17,3.99-8.46,7.78-4.2,4.76-8,8.09-11.4,9.98-3.4,1.89-7.23,2.84-11.5,2.84-5.81,0-10.31-1.47-13.5-4.41-3.19-2.94-4.78-7.21-4.78-12.82s1.6-9.72,4.78-12.55c3.19-2.84,7.76-4.26,13.71-4.26h3.05v10.93h-3.78c-2.52,0-4.36.49-5.52,1.47-1.16.98-1.73,2.42-1.73,4.31,0,3.85,2.35,5.78,7.04,5.78,2.66,0,5.15-.72,7.46-2.15,2.31-1.43,5.12-4.05,8.41-7.83,4.2-4.83,8.02-8.16,11.45-9.98,3.43-1.82,7.46-2.73,12.08-2.73,6.02,0,10.65,1.49,13.87,4.47,3.22,2.98,4.83,7.3,4.83,12.98s-1.59,9.84-4.78,12.71Z"/>
      <path class="cls-2" d="m11.56,23.64v12.08H1.05V0h10.51v12.08h63.04v11.56H11.56Z"/>
    </g>
  </g>
</svg>