<?xml version="1.0" encoding="UTF-8"?>
<svg id="Layer_2" data-name="Layer 2" xmlns="http://www.w3.org/2000/svg" viewBox="0 0 689.08 75.64">
  <defs>
    <style>
      .cls-1 {
        opacity: .35;
      }

      .cls-2 {
        fill: #d3d3d3;
      }
    </style>
  </defs>
  <g id="Layer_1-2" data-name="Layer 1">
    <g class="cls-1">
      <path class="cls-2" d="m0,1.05h17.65c5.74,0,10.05,1.54,12.92,4.62,2.87,3.08,4.31,7.6,4.31,13.55v37.19c0,5.95-1.44,10.47-4.31,13.55-2.87,3.08-7.18,4.62-12.92,4.62H0s0-73.54,0-73.54Zm17.44,63.04c1.89,0,3.34-.56,4.36-1.68,1.02-1.12,1.52-2.94,1.52-5.46V18.7c0-2.52-.51-4.34-1.52-5.46-1.01-1.12-2.47-1.68-4.36-1.68h-5.88s0,52.53,0,52.53h5.88Z"/>
      <path class="cls-2" d="m42.65,1.05h31.52s0,10.51,0,10.51h-19.96s0,19.44,0,19.44h15.86s0,10.5,0,10.5h-15.86s0,22.59,0,22.59h19.96s0,10.51,0,10.51h-31.52s0-73.54,0-73.54Z"/>
      <path class="cls-2" d="m84.42,70.92c-2.91-3.15-4.36-7.6-4.36-13.34V18.07c0-5.74,1.45-10.19,4.36-13.34C87.32,1.58,91.54,0,97.08,0c5.53,0,9.75,1.58,12.66,4.73,2.9,3.15,4.36,7.6,4.36,13.34v7.77s-10.93,0-10.93,0v-8.51c0-4.55-1.93-6.83-5.78-6.83-3.85,0-5.78,2.28-5.78,6.83v41.08c0,4.48,1.92,6.72,5.78,6.72s5.78-2.24,5.78-6.72v-11.24s10.93,0,10.93,0v10.4c0,5.74-1.46,10.19-4.36,13.34-2.91,3.15-7.13,4.73-12.66,4.73-5.54,0-9.75-1.58-12.66-4.73Z"/>
      <path class="cls-2" d="m124.92,70.81c-3.01-3.22-4.52-7.78-4.52-13.66V18.49c0-5.88,1.5-10.44,4.52-13.66C127.93,1.61,132.27,0,137.94,0c5.67,0,10.01,1.61,13.03,4.83,3.01,3.22,4.52,7.77,4.52,13.66v38.66c0,5.88-1.51,10.44-4.52,13.66-3.01,3.22-7.36,4.83-13.03,4.83-5.67,0-10.02-1.61-13.03-4.83Zm19.01-12.92V17.76c0-4.83-2-7.25-5.99-7.25-3.99,0-5.99,2.42-5.99,7.25v40.13c0,4.83,2,7.25,5.99,7.25s5.99-2.42,5.99-7.25Z"/>
      <path class="cls-2" d="m167.25,70.86c-2.94-3.19-4.41-7.76-4.41-13.71V1.05s11.56,0,11.56,0v56.94c0,2.52.51,4.34,1.52,5.46,1.01,1.12,2.47,1.68,4.36,1.68s3.34-.56,4.36-1.68c1.02-1.12,1.52-2.94,1.52-5.46V1.05s11.14,0,11.14,0v56.1c0,5.95-1.47,10.52-4.41,13.71-2.94,3.19-7.22,4.78-12.82,4.78-5.61,0-9.88-1.59-12.82-4.78Z"/>
      <path class="cls-2" d="m202.45,1.05h11.66s7.57,57.05,7.57,57.05h.21s7.56-57.05,7.56-57.05h10.61s-11.14,73.54-11.14,73.54h-15.34S202.45,1.05,202.45,1.05Z"/>
      <path class="cls-2" d="m245.63,1.05h17.13c5.95,0,10.29,1.39,13.03,4.15,2.73,2.77,4.1,7.02,4.1,12.77v4.52c0,7.64-2.52,12.47-7.57,14.5v.21c2.8.84,4.78,2.56,5.94,5.15,1.16,2.59,1.73,6.06,1.73,10.4v12.92c0,2.1.07,3.8.21,5.1.14,1.3.49,2.57,1.05,3.84h-11.77c-.42-1.19-.7-2.31-.84-3.36-.14-1.05-.21-2.94-.21-5.67v-13.45c0-3.36-.54-5.71-1.63-7.04-1.08-1.33-2.96-2-5.62-2h-3.99s0,31.52,0,31.52h-11.56s0-73.54,0-73.54Zm15.76,31.52c2.31,0,4.04-.59,5.2-1.79,1.16-1.19,1.73-3.19,1.73-5.99v-5.67c0-2.66-.47-4.59-1.42-5.78-.95-1.19-2.43-1.79-4.46-1.79h-5.25s0,21.01,0,21.01h4.2Z"/>
      <path class="cls-2" d="m287.97,1.05h31.52s0,10.51,0,10.51h-19.96s0,19.44,0,19.44h15.86s0,10.5,0,10.5h-15.86s0,22.59,0,22.59h19.96s0,10.51,0,10.51h-31.52s0-73.54,0-73.54Z"/>
      <path class="cls-2" d="m324,64.3l21.43-52.74h-20.38s0-10.51,0-10.51h32.78s0,10.3,0,10.3l-21.43,52.74h21.43s0,10.51,0,10.51h-33.83s0-10.3,0-10.3Z"/>
      <path class="cls-2" d="m383.47,70.86c-2.87-3.19-4.31-7.76-4.31-13.71v-4.2s10.93,0,10.93,0v5.04c0,4.76,2,7.14,5.99,7.14,1.96,0,3.45-.58,4.47-1.73s1.52-3.03,1.52-5.62c0-3.08-.7-5.79-2.1-8.14-1.4-2.35-3.99-5.17-7.78-8.46-4.76-4.2-8.09-8-9.98-11.4-1.89-3.4-2.84-7.23-2.84-11.5,0-5.81,1.47-10.31,4.41-13.5C386.72,1.6,390.99,0,396.6,0c5.53,0,9.72,1.6,12.55,4.78,2.84,3.19,4.26,7.76,4.26,13.71v3.05s-10.93,0-10.93,0v-3.78c0-2.52-.49-4.36-1.47-5.52-.98-1.16-2.42-1.73-4.31-1.73-3.85,0-5.78,2.35-5.78,7.04,0,2.66.72,5.15,2.15,7.46,1.43,2.31,4.05,5.12,7.83,8.41,4.83,4.2,8.16,8.02,9.98,11.45,1.82,3.43,2.73,7.46,2.73,12.08,0,6.02-1.49,10.65-4.47,13.87-2.98,3.22-7.3,4.83-12.98,4.83-5.6,0-9.84-1.59-12.71-4.78Z"/>
      <path class="cls-2" d="m429.27,11.56h-12.08s0-10.51,0-10.51h35.72s0,10.51,0,10.51h-12.08s0,63.04,0,63.04h-11.56s0-63.04,0-63.04Z"/>
      <path class="cls-2" d="m458.48,1.05h31.52s0,10.51,0,10.51h-19.96s0,19.44,0,19.44h15.86s0,10.5,0,10.5h-15.86s0,22.59,0,22.59h19.96s0,10.51,0,10.51h-31.52s0-73.54,0-73.54Z"/>
      <path class="cls-2" d="m496.61,1.05h31.52s0,10.51,0,10.51h-19.96s0,19.44,0,19.44h15.86s0,10.5,0,10.5h-15.86s0,22.59,0,22.59h19.96s0,10.51,0,10.51h-31.52s0-73.54,0-73.54Z"/>
      <path class="cls-2" d="m534.75,1.05h17.02c5.74,0,10.05,1.54,12.92,4.62,2.87,3.08,4.31,7.6,4.31,13.55v7.25c0,5.96-1.44,10.47-4.31,13.55-2.87,3.08-7.18,4.62-12.92,4.62h-5.46s0,29.94,0,29.94h-11.56s0-73.54,0-73.54Zm17.02,33.09c1.89,0,3.31-.53,4.25-1.58.95-1.05,1.42-2.84,1.42-5.36v-8.72c0-2.52-.47-4.31-1.42-5.36-.95-1.05-2.36-1.58-4.25-1.58h-5.46s0,22.59,0,22.59h5.46Z"/>
      <path class="cls-2" d="m578.98,70.81c-3.01-3.22-4.52-7.78-4.52-13.66V18.49c0-5.88,1.5-10.44,4.52-13.66C581.99,1.61,586.33,0,592.01,0c5.67,0,10.01,1.61,13.03,4.83,3.01,3.22,4.52,7.77,4.52,13.66v38.66c0,5.88-1.51,10.44-4.52,13.66-3.01,3.22-7.36,4.83-13.03,4.83s-10.02-1.61-13.03-4.83Zm19.01-12.92V17.76c0-4.83-2-7.25-5.99-7.25-3.99,0-5.99,2.42-5.99,7.25v40.13c0,4.83,2,7.25,5.99,7.25s5.99-2.42,5.99-7.25Z"/>
      <path class="cls-2" d="m619.64,70.86c-2.87-3.19-4.31-7.76-4.31-13.71v-4.2s10.93,0,10.93,0v5.04c0,4.76,2,7.14,5.99,7.14,1.96,0,3.45-.58,4.47-1.73s1.52-3.03,1.52-5.62c0-3.08-.7-5.79-2.1-8.14-1.4-2.35-3.99-5.17-7.78-8.46-4.76-4.2-8.09-8-9.98-11.4-1.89-3.4-2.84-7.23-2.84-11.5,0-5.81,1.47-10.31,4.41-13.5C622.9,1.6,627.17,0,632.77,0c5.53,0,9.72,1.6,12.55,4.78,2.84,3.19,4.26,7.76,4.26,13.71v3.05s-10.93,0-10.93,0v-3.78c0-2.52-.49-4.36-1.47-5.52-.98-1.16-2.42-1.73-4.31-1.73-3.85,0-5.78,2.35-5.78,7.04,0,2.66.72,5.15,2.15,7.46,1.43,2.31,4.05,5.12,7.83,8.41,4.83,4.2,8.16,8.02,9.98,11.45,1.82,3.43,2.73,7.46,2.73,12.08,0,6.02-1.49,10.65-4.47,13.87-2.98,3.22-7.3,4.83-12.98,4.83s-9.84-1.59-12.71-4.78Z"/>
      <path class="cls-2" d="m665.44,11.56h-12.08s0-10.51,0-10.51h35.72s0,10.51,0,10.51h-12.08s0,63.04,0,63.04h-11.56s0-63.04,0-63.04Z"/>
    </g>
  </g>
</svg>