<?xml version="1.0" encoding="UTF-8"?>
<svg id="Layer_2" data-name="Layer 2" xmlns="http://www.w3.org/2000/svg" viewBox="0 0 29.85 34.12">
  <defs>
    <style>
      .cls-1 {
        fill: #fff;
      }
    </style>
  </defs>
  <g id="bg1">
    <g>
      <path class="cls-1" d="m11.84,14.31c-.97,0-1.74.85-1.74,1.89s.78,1.89,1.74,1.89,1.74-.85,1.74-1.89c.02-1.04-.77-1.89-1.74-1.89Zm6.23,0c-.97,0-1.74.85-1.74,1.89s.78,1.89,1.74,1.89,1.74-.85,1.74-1.89-.77-1.89-1.74-1.89Z"/>
      <path class="cls-1" d="m26.36,0H3.5C1.57,0,0,1.57,0,3.51v23.06c0,1.94,1.57,3.51,3.5,3.51h19.35l-.9-3.16,2.18,2.03,2.06,1.91,3.67,3.24V3.51c0-1.94-1.57-3.51-3.5-3.51Zm-6.59,22.28s-.61-.73-1.13-1.38c2.23-.63,3.09-2.03,3.09-2.03-.7.46-1.36.78-1.96,1.01-.85.36-1.67.6-2.47.73-1.64.31-3.14.22-4.42-.02-.97-.19-1.81-.46-2.51-.73-.39-.15-.82-.34-1.25-.58-.05-.03-.1-.05-.15-.09-.03-.02-.05-.03-.07-.05-.31-.17-.48-.29-.48-.29,0,0,.82,1.36,2.99,2.01-.51.65-1.14,1.42-1.14,1.42-3.77-.12-5.2-2.59-5.2-2.59,0-5.49,2.46-9.95,2.46-9.95,2.46-1.84,4.79-1.79,4.79-1.79l.17.2c-3.07.89-4.49,2.23-4.49,2.23,0,0,.38-.2,1.01-.49,1.83-.8,3.28-1.02,3.87-1.07.1-.02.19-.03.29-.03,1.04-.14,2.22-.17,3.45-.03,1.62.19,3.36.67,5.14,1.64,0,0-1.35-1.28-4.25-2.17l.24-.27s2.34-.05,4.79,1.79c0,0,2.46,4.45,2.46,9.95,0,0-1.45,2.47-5.22,2.59Z"/>
    </g>
  </g>
</svg>