<?xml version="1.0" encoding="UTF-8"?>
<svg id="Layer_2" data-name="Layer 2" xmlns="http://www.w3.org/2000/svg" viewBox="0 0 35.47 35.47">
  <defs>
    <style>
      .cls-1 {
        fill: #fff;
      }
    </style>
  </defs>
  <g id="bg1">
    <g>
      <path class="cls-1" d="m21.83,17.74c0,2.26-1.83,4.1-4.1,4.1s-4.1-1.83-4.1-4.1,1.83-4.1,4.1-4.1,4.1,1.83,4.1,4.1Z"/>
      <path class="cls-1" d="m24.29,12.21c0,.81-.66,1.46-1.46,1.46s-1.46-.66-1.46-1.46.66-1.46,1.46-1.46,1.46.66,1.46,1.46Z"/>
      <path class="cls-1" d="m17.74,0C7.94,0,0,7.94,0,17.74s7.94,17.74,17.74,17.74,17.74-7.94,17.74-17.74S27.53,0,17.74,0Zm10.12,21.94c-.05,1.08-.22,1.82-.47,2.47-.53,1.37-1.61,2.45-2.98,2.98-.65.25-1.39.42-2.47.47-1.09.05-1.43.06-4.2.06s-3.11-.01-4.2-.06c-1.08-.05-1.82-.22-2.47-.47-.68-.26-1.3-.66-1.8-1.17-.52-.51-.92-1.12-1.17-1.8-.25-.65-.42-1.39-.47-2.47-.05-1.09-.06-1.43-.06-4.2s.01-3.11.06-4.2c.05-1.08.22-1.82.47-2.47.26-.68.66-1.3,1.18-1.8.51-.52,1.12-.92,1.8-1.17.65-.25,1.39-.42,2.47-.47,1.09-.05,1.43-.06,4.2-.06s3.11.01,4.2.06c1.08.05,1.82.22,2.47.47.68.26,1.3.66,1.8,1.18.52.51.92,1.12,1.17,1.8.25.65.42,1.39.47,2.47.05,1.09.06,1.43.06,4.2s-.01,3.11-.06,4.2Z"/>
    </g>
  </g>
</svg>