<?xml version="1.0" encoding="UTF-8"?>
<svg id="Layer_2" data-name="Layer 2" xmlns="http://www.w3.org/2000/svg" viewBox="0 0 110.66 51.65">
  <defs>
    <style>
      .cls-1 {
        fill: none;
        stroke: #fcf4f8;
        stroke-miterlimit: 10;
        stroke-width: .5px;
      }

      .cls-2 {
        fill: #fcf4f8;
      }
    </style>
  </defs>
  <g id="bg1">
    <g>
      <path class="cls-1" d="m110.66,40.67H.41"/>
      <path class="cls-2" d="m2.43,25.78h-.84v6.3h.84v-6.3Z"/>
      <path class="cls-2" d="m15.79,25.79v.79h-2.14v5.5h-.78v-5.5h-2.21v-.79h5.14Z"/>
      <path class="cls-2" d="m25.14,25.78h-.84v6.3h.84v-6.3Z"/>
      <path class="cls-2" d="m34.2,25.79v6.29h.79v-2.99s2.99,0,2.99,0v2.99h.84v-6.29h-.84v2.46h-2.99v-2.46s-.79,0-.79,0Z"/>
      <path class="cls-2" d="m50.56,25.79h-1.05l1.43,3.56,1.09,2.73h.84l-2.31-6.29Z"/>
      <path class="cls-2" d="m48.98,29.35h1.95l.33.84h-2.6l-.68,1.89h-.79l2.31-6.29.42,1.06"/>
      <path class="cls-2" d="m61.31,25.78h2.67s2.24-.05,2.46,2.58v1.25s-.27,2.56-2.46,2.47h-2.67v-6.29Z"/>
      <path class="cls-2" d="m65.76,3.67h-4.63v19h4.63V3.67Z"/>
      <path class="cls-2" d="m59.02,10.72h-4.6l.19,5.22s.16,1.75-1.91,1.52l-2.66.02s-1.23.08-2.93-1.8c0,0-2.46-3.5-2.52-3.54-.66-.84-1.56-1.45-2.58-1.78-1.02-.32-2.11-.33-3.13-.03l-2.12.9,1.78,4.05s1.86-1.55,3.36,1.03l.82,1.25-23.3-.03c-.25-.02-.47-.13-.64-.31-.17-.18-.26-.42-.26-.66V3.66h-4.63v13.76s-.29,4.94,5.41,5.25h34.65s4.69-.14,5.05-4.78v-7.17Z"/>
      <path class="cls-2" d="m57.89,8.15c1.03,0,1.87-.84,1.87-1.87s-.84-1.87-1.87-1.87-1.87.84-1.87,1.87.84,1.87,1.87,1.87Z"/>
      <path class="cls-2" d="m53.08,8.15c1.03,0,1.87-.84,1.87-1.87s-.84-1.87-1.87-1.87-1.87.84-1.87,1.87.84,1.87,1.87,1.87Z"/>
      <path class="cls-2" d="m4.9,8.38l-3.14,3.77s2.91,2.36,3.67,3.67c0,0,1.26,1.79-2.19,1.79l-2.72-.09v5.16h4.49s4.16-.05,5.27-4.46c0-.01,1.89-4.15-5.39-9.85Z"/>
      <g>
        <path class="cls-2" d="m89.81,24.17l-4.82,1.92-3.12,6.89,4.82-1.92,1.74,4.89,3.11-6.89-1.74-4.89Z"/>
        <path class="cls-2" d="m94.91,24.34l-2.05,4.77,2.67,7.08,2.05-4.77,4.69,2.22-2.67-7.08-4.69-2.22Z"/>
        <path class="cls-2" d="m98.64,20.84l1.92,4.82,6.89,3.12-1.92-4.82,4.89-1.74-6.89-3.12-4.89,1.74Z"/>
        <path class="cls-2" d="m98.8,15.73l4.77,2.05,7.08-2.67-4.77-2.05,2.22-4.69-7.08,2.67-2.22,4.69Z"/>
        <path class="cls-2" d="m95.31,12.01l4.82-1.92,3.12-6.89-4.82,1.92-1.74-4.89-3.12,6.89,1.74,4.89Z"/>
        <path class="cls-2" d="m90.2,11.84l2.05-4.77-2.67-7.08-2.05,4.77-4.69-2.22,2.67,7.08,4.69,2.22Z"/>
        <path class="cls-2" d="m86.47,15.34l-1.92-4.82-6.89-3.12,1.92,4.82-4.89,1.74,6.89,3.11,4.89-1.74Z"/>
        <path class="cls-2" d="m86.31,20.45l-4.77-2.05-7.08,2.67,4.77,2.05-2.22,4.69,7.08-2.67,2.22-4.69Z"/>
      </g>
      <path class="cls-2" d="m2.27,51.46v-4.99h1.73v-.51H0v.51h1.73v4.99h.54Zm5.95,0l.65-1.77h2.14l.65,1.77h.58l-2.05-5.49h-.51l-2.02,5.49h.57Zm.81-2.26c.56-1.56.75-2.12.89-2.54.15.43.34.96.92,2.54h-1.81Zm11.14,2.26v-.5h-2.68v-4.99h-.53v5.49h3.2Zm7.95,0v-.49h-2.68v-2.12h2.33v-.49h-2.33v-1.9h2.56v-.49h-3.09v5.49h3.2Zm5.53,0c0-2.82,0-3.8,0-4.51.25.41.62.99,2.91,4.51h.46v-5.49h-.52c0,3.03,0,3.84,0,4.45-.4-.63-.88-1.38-2.89-4.45h-.47v5.49h.52Zm10.46,0v-4.99h1.73v-.51h-4v.51h1.73v4.99h.54Zm5.98-.25c.4.19,1.02.34,1.7.34,1.41,0,1.89-.63,1.89-1.6,0-.82-.34-1.12-1.26-1.38l-.68-.19c-.86-.24-.99-.61-.99-1,0-.61.21-1.03,1.27-1.03.55,0,.93.1,1.33.23l.12-.5c-.37-.12-.89-.21-1.41-.21-1.35,0-1.86.58-1.86,1.56,0,.7.37,1.19,1.09,1.39l.74.2c1,.27,1.1.64,1.1,1,0,.44-.1,1.05-1.34,1.05-.54,0-1.13-.16-1.53-.35l-.17.5Z"/>
      <path class="cls-2" d="m67.85,46.07h-.52v3.54c0,.52-.05.87-.18,1.1-.23.4-.8.46-1.24.46-.65,0-1.03-.17-1.22-.48-.14-.23-.18-.63-.18-1.1v-3.51h-.53v3.3c0,.61,0,1.13.17,1.47.3.64.93.82,1.73.82.89,0,1.47-.26,1.75-.75.19-.35.21-.77.21-1.56v-3.28Zm5.98,5.49c0-2.82,0-3.8,0-4.51.25.41.62.99,2.91,4.51h.46v-5.49h-.52c0,3.03,0,3.84,0,4.45-.4-.63-.88-1.38-2.89-4.45h-.47v5.49h.52Zm9.4,0v-5.49h-.53v5.49h.53Zm7.1,0v-4.99h1.73v-.51h-4v.51h1.73v4.99h.54Zm9.74,0v-.49h-2.68v-2.12h2.33v-.49h-2.33v-1.9h2.56v-.49h-3.09v5.49h3.2Zm5.01,0h1.29c.42,0,1.03-.04,1.43-.19,1.1-.41,1.42-1.37,1.42-2.62,0-1.38-.45-2.26-1.39-2.54-.34-.1-.75-.15-1.4-.15h-1.35v5.49Zm.53-.49v-4.51h.84c.58,0,1,.04,1.3.18.72.32.93,1.07.93,2.01s-.22,1.8-1,2.14c-.3.13-.73.19-1.25.19h-.82Z"/>
    </g>
  </g>
</svg>