<?xml version="1.0" encoding="UTF-8"?>
<svg id="Layer_2" data-name="Layer 2" xmlns="http://www.w3.org/2000/svg" viewBox="0 0 203.9 271.9">
  <defs>
    <style>
      .cls-1 {
        fill: #fcf4f8;
      }
    </style>
  </defs>
  <g id="bg1">
    <g>
      <g>
        <path class="cls-1" d="m2.81,237.34c-1.88-2.08-2.81-5.06-2.81-8.95v-2.74h7.13v3.29c0,3.11,1.3,4.66,3.91,4.66,1.28,0,2.25-.38,2.91-1.13.66-.75.99-1.98.99-3.67,0-2.01-.46-3.78-1.37-5.31-.92-1.53-2.61-3.37-5.08-5.52-3.11-2.74-5.28-5.22-6.52-7.44-1.23-2.22-1.85-4.72-1.85-7.51,0-3.79.96-6.73,2.88-8.81,1.92-2.08,4.71-3.12,8.37-3.12s6.34,1.04,8.2,3.12c1.85,2.08,2.78,5.06,2.78,8.95v1.99h-7.13v-2.47c0-1.65-.32-2.85-.96-3.6-.64-.75-1.58-1.13-2.81-1.13-2.52,0-3.77,1.53-3.77,4.6,0,1.74.47,3.36,1.41,4.87.94,1.51,2.64,3.34,5.11,5.49,3.15,2.74,5.33,5.24,6.52,7.48,1.19,2.24,1.78,4.87,1.78,7.89,0,3.93-.97,6.95-2.91,9.05-1.94,2.1-4.77,3.15-8.47,3.15s-6.42-1.04-8.3-3.12Z"/>
        <path class="cls-1" d="m32.72,198.63h-7.89v-6.86h23.32v6.86h-7.89v41.15h-7.54v-41.15Z"/>
        <path class="cls-1" d="m51.78,191.77h20.58v6.86h-13.03v12.69h10.36v6.86h-10.36v14.75h13.03v6.86h-20.58v-48.01Z"/>
        <path class="cls-1" d="m76.68,191.77h11.11c3.75,0,6.56,1.01,8.44,3.02,1.87,2.01,2.81,4.96,2.81,8.85v4.73c0,3.89-.94,6.84-2.81,8.85-1.88,2.01-4.69,3.02-8.44,3.02h-3.57v19.55h-7.54v-48.01Zm11.11,21.6c1.23,0,2.16-.34,2.78-1.03.62-.69.93-1.85.93-3.5v-5.69c0-1.65-.31-2.81-.93-3.5-.62-.69-1.54-1.03-2.78-1.03h-3.57v14.75h3.57Z"/>
        <path class="cls-1" d="m103.15,191.77h11.11c3.75,0,6.56,1.01,8.44,3.02,1.87,2.01,2.81,4.96,2.81,8.85v4.73c0,3.89-.94,6.84-2.81,8.85-1.88,2.01-4.69,3.02-8.44,3.02h-3.57v19.55h-7.54v-48.01Zm11.11,21.6c1.23,0,2.16-.34,2.78-1.03.62-.69.93-1.85.93-3.5v-5.69c0-1.65-.31-2.81-.93-3.5-.62-.69-1.54-1.03-2.78-1.03h-3.57v14.75h3.57Z"/>
        <path class="cls-1" d="m132.02,237.31c-1.97-2.1-2.95-5.08-2.95-8.92v-25.24c0-3.84.98-6.81,2.95-8.92,1.97-2.1,4.8-3.16,8.5-3.16s6.54,1.05,8.5,3.16c1.97,2.1,2.95,5.08,2.95,8.92v25.24c0,3.84-.98,6.81-2.95,8.92-1.97,2.1-4.8,3.15-8.5,3.15s-6.54-1.05-8.5-3.15Zm12.41-8.44v-26.2c0-3.16-1.3-4.73-3.91-4.73s-3.91,1.58-3.91,4.73v26.2c0,3.15,1.3,4.73,3.91,4.73s3.91-1.58,3.91-4.73Z"/>
        <path class="cls-1" d="m158.57,237.34c-1.88-2.08-2.81-5.06-2.81-8.95v-2.74h7.13v3.29c0,3.11,1.3,4.66,3.91,4.66,1.28,0,2.25-.38,2.91-1.13.66-.75.99-1.98.99-3.67,0-2.01-.46-3.78-1.37-5.31-.92-1.53-2.61-3.37-5.08-5.52-3.11-2.74-5.28-5.22-6.52-7.44-1.23-2.22-1.85-4.72-1.85-7.51,0-3.79.96-6.73,2.88-8.81,1.92-2.08,4.71-3.12,8.37-3.12s6.34,1.04,8.2,3.12c1.85,2.08,2.78,5.06,2.78,8.95v1.99h-7.13v-2.47c0-1.65-.32-2.85-.96-3.6-.64-.75-1.58-1.13-2.81-1.13-2.52,0-3.77,1.53-3.77,4.6,0,1.74.47,3.36,1.41,4.87.94,1.51,2.64,3.34,5.11,5.49,3.15,2.74,5.33,5.24,6.52,7.48,1.19,2.24,1.78,4.87,1.78,7.89,0,3.93-.97,6.95-2.91,9.05-1.94,2.1-4.77,3.15-8.47,3.15s-6.42-1.04-8.3-3.12Z"/>
        <path class="cls-1" d="m188.47,198.63h-7.89v-6.86h23.32v6.86h-7.89v41.15h-7.54v-41.15Z"/>
      </g>
      <g>
        <path class="cls-1" d="m15.92,267.24c-.33,0-.66-.03-1-.09-.34-.06-.65-.18-.95-.37-.3-.19-.56-.48-.77-.86-.22-.38-.37-.91-.45-1.57-.09-.66-.08-1.49.03-2.49.13-1.24.38-2.28.75-3.13.37-.85.9-1.48,1.6-1.91.7-.43,1.62-.64,2.76-.64.31,0,.65.01,1,.04s.68.06.99.11c.31.04.55.08.71.11l.51-4.89h1.05l-1.63,15.5h-1.03l.09-.83c-.26.14-.59.3-1,.46-.41.16-.84.3-1.3.41-.46.11-.91.16-1.35.16Zm.16-.94c.43,0,.86-.05,1.31-.16.45-.11.87-.24,1.27-.39.4-.16.73-.31.99-.45l.84-7.94c-.17-.03-.41-.06-.74-.11-.32-.04-.66-.08-1.01-.11-.35-.03-.66-.04-.93-.04-.93,0-1.65.19-2.18.55-.53.37-.93.91-1.19,1.61-.27.7-.45,1.57-.56,2.59-.11,1.01-.11,1.81,0,2.4.1.59.27,1.03.5,1.32.23.29.5.48.8.58.3.09.61.14.92.14Z"/>
        <path class="cls-1" d="m23.8,267.05l1.12-10.68h1.03l-.17,1.6c.29-.21.67-.44,1.13-.68.46-.24.97-.47,1.52-.68s1.11-.36,1.66-.45l-.11,1.05c-.51.1-1.04.25-1.59.45-.55.2-1.06.41-1.53.64-.47.23-.87.43-1.18.6l-.86,8.16h-1.03Z"/>
        <path class="cls-1" d="m33.11,267.24c-.91,0-1.59-.26-2.04-.79-.45-.53-.62-1.32-.51-2.37.07-.64.23-1.17.49-1.6.26-.43.63-.76,1.11-1.01s1.08-.41,1.8-.48l3.84-.41.11-1.05c.09-.85-.03-1.47-.36-1.85-.33-.38-.87-.57-1.61-.57-.37,0-.8.02-1.3.06-.5.04-.99.09-1.48.14-.49.05-.92.1-1.3.14l.03-.88c.35-.06.77-.12,1.26-.18.49-.06.99-.12,1.51-.16.52-.04.99-.06,1.42-.06.75,0,1.35.12,1.8.37.44.25.75.62.93,1.11.18.49.22,1.11.15,1.87l-.62,5.92c0,.31.14.54.42.67.28.14.6.22.96.25l-.13.88c-.17,0-.34,0-.51-.02-.17-.01-.33-.04-.47-.07-.15-.04-.29-.08-.42-.14-.16-.07-.31-.16-.45-.27-.14-.11-.26-.23-.38-.37-.31.11-.7.24-1.17.38-.47.14-.97.26-1.51.35-.54.09-1.05.14-1.55.14Zm.18-.9c.47,0,.95-.04,1.44-.13.49-.09.97-.19,1.42-.32.45-.13.83-.25,1.13-.36l.43-4.08-3.73.36c-.78.07-1.34.29-1.69.66-.35.37-.56.9-.64,1.58-.08.73.03,1.29.3,1.69.28.4.72.6,1.34.6Z"/>
        <path class="cls-1" d="m41.85,267.05l1.03-9.76h-1.43l.1-.92h1.43l.13-1.2c.11-1.03.28-1.82.53-2.37.24-.56.58-.94,1.02-1.14.43-.21.98-.31,1.63-.31.14,0,.34,0,.59,0,.25,0,.51.02.78.03.27.01.49.03.66.04l-.09.9c-.28-.01-.62-.03-1.01-.03-.39,0-.69-.01-.91-.01-.46,0-.83.08-1.11.23-.29.16-.51.44-.67.86-.16.42-.28,1.02-.36,1.8l-.12,1.17h3.33l-.1.92h-3.33l-1.03,9.76h-1.05Z"/>
        <path class="cls-1" d="m51.6,267.26c-.67,0-1.2-.11-1.58-.32-.38-.21-.64-.59-.77-1.14-.13-.55-.14-1.33-.03-2.36l.65-6.15h-1.64l.1-.92h1.64l.36-3.42h1.03l-.36,3.42h3.72l-.1.92h-3.72l-.57,5.42c-.1.97-.14,1.71-.12,2.23.02.52.16.88.4,1.08.24.2.63.3,1.15.3.14,0,.34,0,.58-.02.24-.01.5-.04.76-.06.27-.03.5-.05.7-.06v.9c-.21.03-.45.06-.72.09-.27.03-.54.05-.81.07-.27.02-.49.03-.68.03Z"/>
        <path class="cls-1" d="m54.58,269.68l1.4-4.63h1.18l-1.7,4.63h-.87Z"/>
        <path class="cls-1" d="m67.84,267.24c-.31,0-.69-.02-1.12-.05-.43-.04-.86-.08-1.3-.14-.44-.06-.82-.11-1.16-.17l.18-.92c.34.04.72.09,1.15.15.43.06.85.1,1.26.14s.74.05,1,.05c.64,0,1.2-.06,1.67-.18.47-.12.86-.35,1.14-.68.28-.33.46-.81.52-1.42.05-.46,0-.81-.17-1.07-.16-.26-.45-.45-.89-.59-.43-.14-1.06-.27-1.89-.4-.8-.13-1.45-.28-1.97-.47s-.88-.46-1.1-.82c-.22-.36-.29-.88-.22-1.55.08-.77.33-1.37.74-1.79s.92-.73,1.5-.9c.59-.17,1.18-.26,1.78-.26.4,0,.83.02,1.29.05.46.04.9.08,1.33.14.43.06.79.11,1.08.15l-.14.94c-.32-.06-.7-.11-1.13-.16-.43-.05-.87-.09-1.31-.13-.44-.04-.85-.05-1.2-.05-.44,0-.87.05-1.3.16s-.78.3-1.06.58c-.29.28-.46.68-.51,1.21-.04.41,0,.74.13.97.13.23.4.43.81.58.41.15,1.01.29,1.79.42.91.14,1.63.31,2.17.51.53.2.91.48,1.12.84s.28.89.21,1.57c-.09.83-.32,1.48-.7,1.97-.38.48-.88.83-1.51,1.03-.63.2-1.37.3-2.22.3Z"/>
        <path class="cls-1" d="m78.54,267.24c-1.15,0-2.03-.18-2.63-.55-.6-.36-.98-.97-1.13-1.81-.15-.85-.16-1.98,0-3.39.14-1.31.39-2.35.76-3.13.37-.78.89-1.33,1.59-1.68.69-.34,1.56-.51,2.62-.51.21,0,.48,0,.8.03.32.02.65.05.98.1.34.04.62.08.86.11l-.14.9c-.24-.03-.51-.06-.82-.08-.31-.03-.62-.05-.92-.08-.3-.02-.56-.03-.75-.03-.88,0-1.59.14-2.11.43-.52.29-.92.75-1.2,1.39-.28.64-.48,1.5-.59,2.56-.12,1.17-.13,2.1-.03,2.81.1.7.38,1.21.83,1.53.45.31,1.16.47,2.13.47.2,0,.45-.01.76-.03.31-.02.63-.05.96-.07.33-.03.62-.05.86-.06l-.05.9c-.27.03-.58.06-.93.1-.35.04-.68.06-1.01.09-.33.02-.6.03-.81.03Z"/>
        <path class="cls-1" d="m83.81,267.05l1.63-15.5h1.03l-.57,5.45c.28-.13.63-.25,1.04-.37.41-.12.85-.22,1.3-.31.46-.09.89-.13,1.31-.13.74,0,1.33.09,1.77.27.44.18.77.47.99.88.22.41.34.95.36,1.62.02.68-.02,1.51-.13,2.51l-.59,5.6h-1.05l.58-5.53c.12-1.12.15-2.01.1-2.65-.05-.64-.25-1.09-.58-1.36-.34-.26-.88-.39-1.64-.39-.43,0-.87.04-1.31.12-.45.08-.87.18-1.26.3-.39.12-.72.24-.99.35l-.96,9.16h-1.03Z"/>
        <path class="cls-1" d="m98.74,267.24c-1.05,0-1.86-.21-2.41-.64-.55-.43-.91-1.05-1.06-1.88-.16-.83-.17-1.82-.05-2.99.15-1.4.46-2.5.92-3.3.47-.8,1.05-1.38,1.73-1.73.68-.35,1.45-.52,2.31-.52,1.34,0,2.32.39,2.94,1.17s.84,2.09.65,3.91l-.11.88h-7.41c-.13,1.35,0,2.39.36,3.11.37.72,1.13,1.08,2.3,1.08.38,0,.81-.01,1.28-.03.47-.02.94-.05,1.42-.07.47-.03.88-.06,1.23-.09l-.05.88c-.35.03-.76.06-1.24.11-.48.04-.97.07-1.46.1-.49.02-.94.03-1.34.03Zm-2.4-6h6.36c.16-1.54.03-2.62-.4-3.24-.43-.62-1.17-.93-2.22-.93-.68,0-1.29.14-1.81.42-.52.28-.95.72-1.28,1.32-.33.6-.56,1.41-.66,2.42Z"/>
        <path class="cls-1" d="m109.1,267.24c-.33,0-.66-.03-1-.09-.34-.06-.65-.18-.95-.37-.3-.19-.56-.48-.77-.86-.22-.38-.37-.91-.45-1.57-.09-.66-.08-1.49.03-2.49.13-1.24.38-2.28.75-3.13.37-.85.9-1.48,1.6-1.91.7-.43,1.62-.64,2.76-.64.31,0,.65.01,1,.04s.68.06.99.11c.31.04.55.08.71.11l.51-4.89h1.05l-1.63,15.5h-1.03l.09-.83c-.26.14-.59.3-1,.46-.41.16-.84.3-1.3.41-.46.11-.91.16-1.35.16Zm.16-.94c.43,0,.86-.05,1.31-.16.45-.11.87-.24,1.27-.39.4-.16.73-.31.99-.45l.84-7.94c-.17-.03-.41-.06-.74-.11-.32-.04-.66-.08-1.01-.11-.35-.03-.66-.04-.93-.04-.93,0-1.65.19-2.18.55-.53.37-.93.91-1.19,1.61-.27.7-.45,1.57-.56,2.59-.11,1.01-.11,1.81,0,2.4.1.59.27,1.03.5,1.32.23.29.5.48.8.58.3.09.61.14.92.14Z"/>
        <path class="cls-1" d="m120.14,267.24c-.9,0-1.57-.17-2.01-.51-.44-.34-.71-.9-.79-1.69s-.06-1.82.07-3.12l.58-5.55h1.03l-.58,5.53c-.12,1.1-.15,1.96-.09,2.61.05.64.24,1.1.57,1.38.33.28.84.42,1.54.42.74,0,1.42-.11,2.03-.33.61-.22,1.11-.43,1.49-.63l.94-8.97h1.03l-1.12,10.68h-1.03l.08-.81c-.42.23-.94.45-1.54.67-.61.22-1.34.33-2.19.33Z"/>
        <path class="cls-1" d="m128.23,267.05l1.63-15.5h1.03l-1.63,15.5h-1.03Z"/>
        <path class="cls-1" d="m136.28,267.24c-1.05,0-1.86-.21-2.41-.64-.55-.43-.91-1.05-1.06-1.88-.16-.83-.17-1.82-.05-2.99.15-1.4.46-2.5.92-3.3.47-.8,1.05-1.38,1.73-1.73.68-.35,1.45-.52,2.31-.52,1.34,0,2.32.39,2.94,1.17.62.78.84,2.09.65,3.91l-.11.88h-7.41c-.13,1.35,0,2.39.36,3.11.37.72,1.13,1.08,2.3,1.08.38,0,.81-.01,1.28-.03.47-.02.94-.05,1.42-.07.47-.03.88-.06,1.23-.09l-.05.88c-.35.03-.76.06-1.24.11-.48.04-.97.07-1.46.1-.49.02-.94.03-1.34.03Zm-2.4-6h6.36c.16-1.54.03-2.62-.4-3.24-.43-.62-1.17-.93-2.22-.93-.68,0-1.29.14-1.81.42-.52.28-.95.72-1.28,1.32-.33.6-.56,1.41-.66,2.42Z"/>
        <path class="cls-1" d="m142.37,269.68l1.4-4.63h1.18l-1.7,4.63h-.87Z"/>
        <path class="cls-1" d="m152,271.9l1.63-15.53h1.03l-.09.85c.26-.16.59-.32.99-.48s.83-.3,1.29-.41c.46-.11.91-.16,1.35-.16.88,0,1.57.19,2.07.58.5.38.84.97,1.02,1.76.18.79.21,1.81.08,3.04-.14,1.34-.41,2.43-.8,3.27-.39.84-.95,1.45-1.66,1.84-.71.38-1.62.58-2.73.58-.53,0-1.04-.03-1.54-.1s-.87-.12-1.1-.18l-.52,4.93h-1.03Zm4.26-5.57c.88,0,1.6-.16,2.14-.48.55-.32.97-.83,1.26-1.53.29-.7.5-1.62.62-2.76.17-1.64.06-2.79-.34-3.45-.4-.66-1.04-.99-1.92-.99-.4,0-.82.05-1.28.16s-.88.24-1.27.4c-.39.16-.73.31-1,.47l-.83,7.9c.24.04.6.1,1.1.17.5.07,1,.11,1.52.11Z"/>
        <path class="cls-1" d="m167.56,267.24c-1.17,0-2.05-.19-2.65-.56-.6-.37-.98-.98-1.13-1.82-.15-.84-.16-1.95-.01-3.33.14-1.3.39-2.33.76-3.12.37-.78.89-1.35,1.58-1.71.69-.36,1.56-.53,2.63-.53s1.93.18,2.54.53c.61.36,1.02.93,1.22,1.71.2.78.24,1.82.1,3.12-.14,1.38-.38,2.49-.71,3.33-.33.84-.83,1.44-1.5,1.82-.67.37-1.61.56-2.8.56Zm.1-.92c.98,0,1.73-.16,2.24-.47.51-.31.87-.82,1.09-1.53.22-.7.39-1.63.51-2.79.12-1.12.11-2.01-.02-2.66-.13-.65-.42-1.11-.87-1.38-.45-.27-1.11-.41-1.98-.41s-1.54.14-2.05.41c-.51.27-.9.73-1.17,1.38-.27.65-.46,1.53-.58,2.66-.12,1.15-.14,2.08-.07,2.79.08.7.33,1.21.77,1.53.44.31,1.15.47,2.13.47Z"/>
        <path class="cls-1" d="m177.99,267.24c-.31,0-.69-.02-1.12-.05-.43-.04-.86-.08-1.3-.14-.44-.06-.82-.11-1.16-.17l.18-.92c.34.04.72.09,1.15.15.43.06.85.1,1.26.14s.74.05,1,.05c.64,0,1.2-.06,1.67-.18.47-.12.86-.35,1.14-.68.28-.33.46-.81.52-1.42.05-.46,0-.81-.17-1.07-.16-.26-.45-.45-.89-.59-.43-.14-1.06-.27-1.89-.4-.8-.13-1.45-.28-1.97-.47s-.88-.46-1.1-.82c-.22-.36-.29-.88-.22-1.55.08-.77.33-1.37.74-1.79s.92-.73,1.5-.9c.59-.17,1.18-.26,1.78-.26.4,0,.83.02,1.29.05.46.04.9.08,1.33.14.43.06.79.11,1.08.15l-.14.94c-.32-.06-.7-.11-1.13-.16-.43-.05-.87-.09-1.31-.13-.44-.04-.85-.05-1.2-.05-.44,0-.87.05-1.3.16s-.78.3-1.06.58c-.29.28-.46.68-.51,1.21-.04.41,0,.74.13.97.13.23.4.43.81.58.41.15,1.01.29,1.79.42.91.14,1.63.31,2.17.51.53.2.91.48,1.12.84s.28.89.21,1.57c-.09.83-.32,1.48-.7,1.97-.38.48-.88.83-1.51,1.03-.63.2-1.37.3-2.22.3Z"/>
        <path class="cls-1" d="m188.11,267.26c-.67,0-1.2-.11-1.58-.32-.38-.21-.64-.59-.77-1.14-.13-.55-.14-1.33-.03-2.36l.65-6.15h-1.64l.1-.92h1.64l.36-3.42h1.03l-.36,3.42h3.72l-.1.92h-3.72l-.57,5.42c-.1.97-.14,1.71-.12,2.23.02.52.16.88.4,1.08.24.2.63.3,1.15.3.14,0,.34,0,.58-.02.24-.01.5-.04.76-.06.27-.03.5-.05.7-.06v.9c-.21.03-.45.06-.72.09-.27.03-.54.05-.81.07-.27.02-.49.03-.68.03Z"/>
      </g>
      <g>
        <path class="cls-1" d="m60.07,71.59s0,0,0,0l66.76-14.65c1.99-.44,3.25-2.41,2.82-4.4-.44-1.99-2.41-3.26-4.4-2.82l-66.76,14.65s0,0,0,0c-6.96,1.53-11.38,8.43-9.86,15.4.74,3.37,2.75,6.25,5.66,8.12,2.11,1.35,4.5,2.04,6.94,2.04.43,0,.86-.02,1.29-.07,0,0,0,0,.01,0,.26,0,.53-.03.8-.09l67.45-14.8c2.98-.65,5.94,1.24,6.59,4.22.65,2.98-1.24,5.94-4.22,6.59,0,0,0,0,0,0l-77.81,17.08c-1.9.42-3.13,2.22-2.87,4.12,0,0,0,0,0,0,.04.1.06.21.06.31,0,.01,0,.02,0,.04.01.03.02.06.04.09.01.05.02.1.03.15.48,1.56,1.93,2.6,3.52,2.6.26,0,.53-.03.8-.09l77.81-17.08s0,0,0,0c6.96-1.53,11.38-8.44,9.86-15.4-.74-3.37-2.75-6.25-5.66-8.12-2.91-1.86-6.37-2.48-9.74-1.74l-66.76,14.65s0,0,0,0c-1.44.32-2.93.05-4.17-.74-1.25-.8-2.11-2.03-2.42-3.48-.65-2.98,1.24-5.94,4.22-6.59Z"/>
        <path class="cls-1" d="m168.99,48.19c-3.97-9.4-9.66-17.84-16.91-25.08-7.25-7.25-15.68-12.93-25.08-16.91-9.73-4.12-20.06-6.2-30.72-6.2s-20.99,2.09-30.72,6.2c-9.4,3.97-17.84,9.66-25.08,16.91-7.25,7.25-12.93,15.68-16.91,25.08-4.12,9.73-6.2,20.06-6.2,30.72,0,2.04,1.65,3.7,3.7,3.7.26,0,.52-.03.77-.08.07-.02.14-.03.21-.03.04-.01.07-.03.11-.04.05-.02.11-.04.17-.05.03-.02.06-.03.09-.04,0,0,0,0,0,0,1.37-.54,2.34-1.88,2.34-3.44C24.77,39.47,56.85,7.39,96.29,7.39s71.52,32.08,71.52,71.52-32.08,71.52-71.52,71.52c-15.62,0-30.46-4.95-42.92-14.3-1.63-1.23-3.95-.9-5.17.73-1.23,1.63-.9,3.95.73,5.17,6.69,5.02,14.08,8.93,21.96,11.61,8.16,2.77,16.7,4.18,25.39,4.18,10.65,0,20.99-2.09,30.72-6.2,9.4-3.97,17.84-9.66,25.08-16.91,7.25-7.25,12.93-15.68,16.91-25.08,4.12-9.73,6.2-20.07,6.2-30.72s-2.09-20.99-6.2-30.72Z"/>
        <path class="cls-1" d="m47.76,108.62c-.45-2.04-2.47-3.33-4.51-2.88l-19.41,4.26c-2.04.45-3.33,2.46-2.88,4.51.39,1.77,1.95,2.97,3.69,2.97.27,0,.54-.03.81-.09l19.41-4.26c2.04-.45,3.33-2.46,2.88-4.51Z"/>
        <path class="cls-1" d="m12.42,112.34l-2.34.51c-2.04.45-3.33,2.46-2.88,4.51.39,1.77,1.95,2.97,3.69,2.97.27,0,.54-.03.81-.09l2.34-.51c2.04-.45,3.33-2.46,2.88-4.51-.45-2.04-2.46-3.33-4.51-2.88Z"/>
      </g>
    </g>
  </g>
</svg>